<svg xmlns="http://www.w3.org/2000/svg" version="1.1" xmlns:xlink="http://www.w3.org/1999/xlink" xmlns:svgjs="http://svgjs.dev/svgjs" width="291" height="447"><svg width="291" height="447" viewBox="0 0 291 447" fill="none" xmlns="http://www.w3.org/2000/svg">
<rect x="3" y="3" width="285" height="441" rx="142.5" stroke="#FF8A63" stroke-width="6"></rect>
<path d="M96.205 143.222C93.2668 141.184 89.5647 139.989 85.0525 139.034V139H152.052V139.069C144.618 140.867 139.875 144.178 136.926 147.323C135.311 149.046 134.269 150.682 133.62 151.923C133.296 152.543 133.07 153.066 132.919 153.453C132.843 153.647 132.786 153.807 132.745 153.929C132.725 153.99 132.709 154.041 132.696 154.082C132.689 154.103 132.684 154.121 132.679 154.137L132.673 154.158L132.67 154.168L132.669 154.172C132.668 154.174 132.668 154.176 135.552 155L132.668 154.176L132.552 154.58V155V204.5V206.56L134.475 207.3L153.975 214.8L155.966 215.566L157.343 213.937L155.052 212C157.343 213.937 157.343 213.937 157.343 213.937L157.345 213.935L157.35 213.93L157.369 213.906L157.447 213.815L157.749 213.457C158.015 213.142 158.406 212.68 158.907 212.087C159.908 210.902 161.347 209.196 163.103 207.113C166.615 202.948 171.392 197.274 176.45 191.24C186.548 179.194 197.824 165.648 202.363 159.849C205.089 156.365 205.832 152.807 204.578 149.505C203.435 146.493 200.853 144.349 198.475 142.883C196.024 141.373 193.325 140.303 191.302 139.619C190.855 139.468 190.436 139.334 190.052 139.216V139H240.052V139.151C238.648 139.579 236.725 140.285 234.39 141.433C229.496 143.839 222.828 148.172 215.343 155.915C207.995 163.517 195.292 178.614 184.497 191.717C179.083 198.289 174.124 204.39 170.519 208.848C168.716 211.077 167.251 212.896 166.237 214.158C165.73 214.788 165.335 215.28 165.067 215.614L164.762 215.995L164.684 216.093L164.664 216.117L164.659 216.124L164.658 216.125C164.658 216.126 164.657 216.126 167 218L164.657 216.126L162.41 218.935L165.576 220.64L165.576 220.64L165.577 220.641L165.579 220.642L165.602 220.655C165.624 220.667 165.659 220.686 165.708 220.713C165.748 220.735 165.796 220.762 165.854 220.795C165.936 220.841 166.036 220.898 166.153 220.965C166.549 221.192 167.141 221.539 167.899 222.005C169.416 222.936 171.597 224.341 174.216 226.214C179.459 229.963 186.429 235.568 193.33 242.982C207.144 257.821 220.518 279.711 219.554 308.399C218.599 336.806 200.09 357.815 181.254 371.911C174.253 377.15 167.278 381.379 161.281 384.622C166.487 379.529 172.572 373.251 178.551 366.337C186.245 357.442 193.841 347.406 199.148 337.424C204.411 327.525 207.672 317.218 206.005 307.968C202.855 290.493 193.012 278.648 180.322 268.929C171.836 262.43 161.811 256.708 151.577 250.867C146.754 248.114 141.885 245.335 137.109 242.436L132.552 239.669V245V300.5V301.571L133.23 302.399C135.879 305.638 138.502 308.001 142.07 309.484C142.522 309.672 142.983 309.843 143.457 310H90.0588C91.2317 309.67 92.4574 309.269 93.6666 308.785C96.5247 307.642 98.7864 306.082 100.327 304.822C101.102 304.188 101.707 303.619 102.127 303.199C102.337 302.989 102.502 302.815 102.62 302.687C102.641 302.665 102.66 302.643 102.678 302.623C102.711 302.588 102.738 302.557 102.761 302.532L102.785 302.505L102.805 302.482L102.82 302.465L102.826 302.458L102.828 302.455L102.829 302.454C102.83 302.453 102.83 302.452 100.552 300.5L102.83 302.452L103.552 301.61V300.5V228V226.077L101.805 225.274C85.7189 217.881 73.6311 208.738 65.0273 197.277C56.4289 185.823 51.1705 171.869 49.0296 154.63C46.1966 131.819 51.5973 113.601 63.2177 98.0638C68.6197 90.8409 75.3917 84.1635 83.3696 77.8697C75.8703 85.8216 70.3692 93.4933 66.6805 101.414C59.1526 117.578 59.3614 134.343 64.5858 155.712L64.6488 155.97L64.7559 156.212C69.5314 167.02 73.8034 173.561 79.188 178.33C84.447 182.988 90.5918 185.776 98.4951 189.361L98.7786 189.49L99.313 189.732L103.552 191.655V187V155V154.556L103.424 154.131C101.951 149.267 99.8227 145.731 96.205 143.222Z" fill="#FF8A63" stroke="#FF8A63" stroke-width="6"></path>
</svg><style>@media (prefers-color-scheme: light) { :root { filter: none; } }
@media (prefers-color-scheme: dark) { :root { filter: none; } }
</style></svg>